<svg xmlns="http://www.w3.org/2000/svg" viewBox="0 0 32 32" xml:space="preserve" fill="#61DAFB" ><path d="M22.246 25.303c-.096-.05-.168-.106-.246-.16V27H9V7.733c-.726-.263-.669-1.459.163-1.582.045-.04.08-.086.137-.116L9.319 6H8.5a.5.5 0 0 0-.5.5v21a.5.5 0 0 0 .5.5h14a.5.5 0 0 0 .5-.5v-2.195a.79.79 0 0 1-.754-.002z"/><path d="M24.5 26h-14a.5.5 0 0 1-.5-.5v-21a.5.5 0 0 1 .5-.5h9.125a.5.5 0 0 1 .362.155l4.875 5.125a.501.501 0 0 1 .138.345V25.5a.5.5 0 0 1-.5.5zM11 25h13V9.825L19.41 5H11v20z"/><path d="M8.5 28a.5.5 0 0 1-.5-.5v-21c0-.133.053-.26.146-.354l2-2A.5.5 0 0 1 11 4.5v21c0 .133-.053.26-.146.354l-2 2A.504.504 0 0 1 8.5 28zM9 6.707v19.586l1-1V5.707l-1 1zM21 14h-6a.5.5 0 0 1 0-1h6a.5.5 0 0 1 0 1zM21 16h-6a.5.5 0 0 1 0-1h6a.5.5 0 0 1 0 1zM21 18h-6a.5.5 0 0 1 0-1h6a.5.5 0 0 1 0 1zM24.5 10h-5a.5.5 0 0 1-.5-.5v-5a.5.5 0 0 1 .854-.354l5 5A.499.499 0 0 1 24.5 10zM20 9h3.293L20 5.707V9z"/></svg>